<svg width="906" height="406" viewBox="0 0 906 406" fill="none" xmlns="http://www.w3.org/2000/svg">
<circle cx="203" cy="203" r="138" fill="#5D5DFF"/>
<path d="M203 -8.87341e-06C176.342 -7.70814e-06 149.944 5.25074 125.315 15.4525C100.686 25.6542 78.3076 40.607 59.4573 59.4573C40.607 78.3076 25.6541 100.686 15.4524 125.315C5.25074 149.944 -1.1204e-05 176.342 -8.87341e-06 203C-6.54287e-06 229.658 5.25075 256.056 15.4525 280.685C25.6542 305.314 40.607 327.692 59.4573 346.543C78.3076 365.393 100.686 380.346 125.315 390.548C149.944 400.749 176.342 406 203 406L203 373.251C180.642 373.251 158.503 368.848 137.848 360.292C117.192 351.736 98.4233 339.195 82.614 323.386C66.8047 307.577 54.2641 288.808 45.7081 268.152C37.1522 247.497 32.7485 225.358 32.7485 203C32.7485 180.642 37.1522 158.503 45.7081 137.848C54.2641 117.192 66.8047 98.4233 82.614 82.614C98.4233 66.8047 117.192 54.2641 137.848 45.7081C158.503 37.1522 180.642 32.7485 203 32.7485L203 -8.87341e-06Z" fill="#5D5DFF"/>
<path d="M266.12 170.701L237.719 248.213L225.411 254.248L206.595 198.511L188.963 248.213L176.655 254.248L146.242 170.464L135 163.719L137.367 158.985H169.792V162.654L161.153 169.162L185.768 238.509L203.4 189.28L197.01 170.346L186.123 163.719L188.489 158.985H223.281V162.654L212.749 170.819L234.76 238.273L259.138 170.819L238.074 163.719L240.44 158.985H276.416V162.654L266.12 170.701ZM310.88 187.978C316.087 187.978 320.742 189.359 324.844 192.12C329.025 194.803 332.26 198.471 334.548 203.126C336.915 207.781 338.098 212.909 338.098 218.51C338.098 224.585 336.244 230.304 332.536 235.669C328.828 240.955 324.173 245.215 318.572 248.45C313.05 251.606 307.685 253.183 302.478 253.183C297.271 253.183 292.577 251.842 288.396 249.16C284.293 246.399 281.059 242.691 278.692 238.036C276.404 233.381 275.26 228.253 275.26 222.652C275.26 216.577 277.114 210.897 280.822 205.611C284.53 200.246 289.145 195.986 294.668 192.83C300.269 189.596 305.673 187.978 310.88 187.978ZM304.016 197.919C295.101 197.919 290.644 204.27 290.644 216.972C290.644 224.466 292.261 230.738 295.496 235.788C298.731 240.758 303.346 243.243 309.342 243.243C318.257 243.243 322.714 236.853 322.714 224.072C322.714 216.656 321.097 210.463 317.862 205.493C314.627 200.443 310.012 197.919 304.016 197.919ZM395.599 188.097C398.202 188.097 400.49 188.807 402.463 190.227C404.435 191.647 405.973 193.619 407.078 196.144L399.268 205.966H394.771C394.455 203.994 393.863 202.613 392.996 201.824C392.207 200.956 391.102 200.522 389.682 200.522C387.946 200.522 386.092 200.996 384.12 201.942C382.227 202.81 380.057 204.506 377.611 207.031V242.296L394.179 247.385L391.812 252.118H352.878V248.45L363.411 240.166V206.676L352.878 200.522V196.854L373.115 186.913L376.783 201.469L389.09 188.925C390.747 188.294 392.917 187.978 395.599 187.978V188.097ZM447.261 247.266L444.894 252H411.877V248.331L422.409 240.048V167.269L411.877 159.932V156.263L432.113 148.69H436.61V243.125L447.261 247.266ZM485.129 252H465.13L442.882 220.758L465.011 202.179L453.651 193.895L456.018 189.162H484.301V192.83L456.846 215.906L476.845 243.125L487.496 247.266L485.129 252ZM548.731 231.054C548.731 228.608 547.745 226.32 545.773 224.19C543.8 222.06 541.315 220.127 538.317 218.392C535.398 216.577 531.414 214.368 526.365 211.765C520.369 208.609 515.557 205.927 511.927 203.718C508.298 201.43 505.182 198.747 502.579 195.67C500.054 192.594 498.792 189.201 498.792 185.493C498.792 181.549 500.449 177.328 503.762 172.831C507.076 168.255 511.099 164.429 515.833 161.352C520.645 158.196 525.063 156.618 529.087 156.618C533.978 156.618 539.658 157.21 546.128 158.394C552.597 159.577 557.33 160.839 560.328 162.18V185.138H555.831C551.966 178.748 547.705 173.778 543.051 170.228C538.475 166.677 533.662 164.902 528.613 164.902C524.116 164.902 520.527 166.322 517.844 169.162C515.241 171.924 513.939 175.553 513.939 180.05C513.939 182.653 514.925 185.099 516.898 187.387C518.949 189.596 521.434 191.568 524.353 193.304C527.351 195.039 531.493 197.288 536.779 200.049C542.617 202.968 547.35 205.572 550.979 207.859C554.609 210.068 557.646 212.672 560.092 215.67C562.616 218.589 563.878 221.902 563.878 225.61C563.878 229.555 562.103 233.815 558.553 238.391C555.003 242.888 550.664 246.714 545.536 249.87C540.487 252.947 535.871 254.485 531.69 254.485C526.562 254.485 520.448 253.893 513.348 252.71C506.326 251.527 501.277 250.264 498.2 248.923V225.965H502.697C506.721 232.356 511.296 237.326 516.424 240.876C521.552 244.426 526.838 246.201 532.282 246.201C535.516 246.201 538.396 245.491 540.921 244.071C543.445 242.651 545.378 240.797 546.719 238.509C548.06 236.143 548.731 233.657 548.731 231.054ZM615.261 253.302C611.001 253.302 607.056 252 603.427 249.397V272.354L619.994 277.443L617.628 282.177H578.694V278.508L589.226 270.224V206.676L578.694 200.522V196.854L598.93 186.913L602.835 202.297L619.758 188.925C622.282 188.294 625.162 187.978 628.397 187.978C632.657 187.978 636.483 189.359 639.875 192.12C643.347 194.803 646.029 198.471 647.923 203.126C649.895 207.781 650.881 212.909 650.881 218.51C650.881 224.585 649.027 230.304 645.319 235.669C641.611 240.955 636.956 245.215 631.355 248.45C625.833 251.606 620.468 253.183 615.261 253.183V253.302ZM622.361 199.339C619.363 199.339 616.444 199.931 613.604 201.114C610.764 202.297 607.372 204.625 603.427 208.096V228.095C603.427 232.435 605.044 236.064 608.279 238.983C611.513 241.902 616.129 243.361 622.125 243.361C631.039 243.361 635.497 237.01 635.497 224.309C635.497 217.287 634.353 211.37 632.065 206.558C629.777 201.745 626.543 199.339 622.361 199.339ZM708.436 188.097C711.039 188.097 713.327 188.807 715.299 190.227C717.272 191.647 718.81 193.619 719.914 196.144L712.104 205.966H707.607C707.292 203.994 706.7 202.613 705.832 201.824C705.043 200.956 703.939 200.522 702.519 200.522C700.783 200.522 698.929 200.996 696.957 201.942C695.063 202.81 692.894 204.506 690.448 207.031V242.296L707.015 247.385L704.649 252.118H665.715V248.45L676.247 240.166V206.676L665.715 200.522V196.854L685.951 186.913L689.62 201.469L701.927 188.925C703.584 188.294 705.753 187.978 708.436 187.978V188.097ZM760.097 252H727.08V248.331L737.613 240.048V205.493L727.08 198.156V194.487L747.316 186.913H751.813V243.125L762.464 247.266L760.097 252ZM744.24 151.412C746.606 151.412 748.539 152.279 750.038 154.015C751.616 155.751 752.405 157.92 752.405 160.524C752.405 162.338 751.853 164.074 750.748 165.731C749.644 167.308 748.263 168.571 746.606 169.517C744.95 170.464 743.332 170.938 741.755 170.938C739.388 170.938 737.415 170.07 735.838 168.334C734.339 166.598 733.589 164.429 733.589 161.825C733.589 160.011 734.141 158.315 735.246 156.737C736.35 155.08 737.731 153.778 739.388 152.832C741.044 151.885 742.662 151.412 744.24 151.412ZM846.328 252.118H823.843V212.238C823.843 207.899 823.173 204.861 821.831 203.126C820.49 201.39 818.084 200.522 814.613 200.522C812.009 200.522 809.406 200.996 806.802 201.942C804.278 202.889 801.28 204.704 797.809 207.386V243.243L808.459 247.385L806.092 252.118H773.076V248.45L783.608 240.166V206.676L773.076 200.522V196.854L793.312 186.913L797.217 202.297L814.021 188.925C815.678 188.294 817.847 187.978 820.53 187.978C825.894 187.978 830.155 189.635 833.31 192.949C836.466 196.183 838.044 200.601 838.044 206.203V243.125L848.694 247.385L846.328 252.118ZM891.859 252.237C890.044 252.868 887.835 253.183 885.232 253.183C878.684 253.183 873.871 251.487 870.794 248.095C867.796 244.624 866.297 239.298 866.297 232.119V197.564H853.517V192.712L876.001 166.559H880.498V192.712H901.799V197.564H880.498V233.539C880.498 239.929 883.575 243.125 889.729 243.125C891.385 243.125 892.963 242.77 894.462 242.059C896.04 241.349 897.973 240.087 900.261 238.273L903.811 242.77L891.859 252.237Z" fill="white"/>
</svg>
