<svg width="376" height="358" viewBox="0 0 376 358" fill="none" xmlns="http://www.w3.org/2000/svg">
<circle cx="188" cy="179" r="138" fill="#5D5DFF"/>
<path d="M188 2.22998e-05C163.311 2.3379e-05 138.865 4.63 116.056 13.6256C93.2463 22.6212 72.5213 35.8062 55.0639 52.4279C37.6065 69.0496 23.7585 88.7824 14.3106 110.5C4.86275 132.217 -9.93101e-06 155.493 -7.82434e-06 179C-5.71766e-06 202.507 4.86276 225.783 14.3106 247.5C23.7585 269.218 37.6065 288.95 55.0639 305.572C72.5214 322.194 93.2463 335.379 116.056 344.374C138.865 353.37 163.312 358 188 358L188 329.123C167.294 329.123 146.791 325.24 127.662 317.696C108.532 310.151 91.1507 299.093 76.5096 285.153C61.8684 271.213 50.2544 254.663 42.3307 236.45C34.407 218.236 30.3287 198.714 30.3287 179C30.3287 159.286 34.407 139.764 42.3307 121.55C50.2544 103.337 61.8684 86.7871 76.5095 72.8469C91.1507 58.9066 108.532 47.8486 127.662 40.3042C146.791 32.7598 167.294 28.8768 188 28.8768L188 2.22998e-05Z" fill="#5D5DFF"/>
<path d="M248.12 146.701L219.719 224.213L207.411 230.248L188.595 174.511L170.963 224.213L158.656 230.248L128.242 146.464L117 139.719L119.367 134.985H151.792V138.654L143.153 145.162L167.768 214.509L185.4 165.28L179.01 146.346L168.123 139.719L170.489 134.985H205.281V138.654L194.749 146.819L216.76 214.273L241.138 146.819L220.074 139.719L222.44 134.985H258.416V138.654L248.12 146.701Z" fill="white"/>
</svg>
